# xmcd
#
# Track frame offsets:
#	182
#	17610
#	30752
#	43620
#	63527
#	79202
#	95290
#	112705
#	131032
#	146732
#	160607
#
# Disc length: 2365 seconds
#
# Revision: 3
# Processed by: cddbd v1.5.2PL0 Copyright (c) Steve Scherf et al.
# Submitted via: audiograbber 1.83.01
#
DISCID=7f093b0b
DTITLE=Chalee Tennison - Chalee Tennison
DYEAR=1999
DGENRE=Country
TTITLE0=Someone Else's Turn To Cry
TTITLE1=I Let Him Get Away With It
TTITLE2=Handful Of Water
TTITLE3=Just Because She Lives There
TTITLE4=Leave It At That
TTITLE5=A Stolen Car
TTITLE6=I Can Feel You Drifting
TTITLE7=It Ain't So Easy
TTITLE8=There's A War In Me
TTITLE9=Sometime
TTITLE10=I'd Rather Miss You
EXTD=
EXTT0=
EXTT1=
EXTT2=
EXTT3=
EXTT4=
EXTT5=
EXTT6=
EXTT7=
EXTT8=
EXTT9=
EXTT10=
PLAYORDER=
